<svg xml:space="preserve" style="max-height: 500px" viewBox="0 26.4 502.99899400000004 426" y="0px" x="0px" xmlns:xlink="http://www.w3.org/1999/xlink" xmlns="http://www.w3.org/2000/svg" version="1.1" width="502.99899400000004" height="426">
<g id="BACKGROUND">
	<path d="M128.426,407.022c-36.547,5.71-69.13-17.667-89.119-46.351&#xA;&#9;&#9;c-23.196-33.288-30.989-72.457-19.382-111.586c7.696-25.944,20.717-49.99,29.657-75.532c11.502-32.864,17.467-66.853,42.382-92.82&#xA;&#9;&#9;c22.008-22.937,55.086-34.09,86.515-32.184c23.107,1.401,45.428,9.254,65.25,21.023c20.618,12.241,36.208,29.644,58.825,38.629&#xA;&#9;&#9;c35.087,13.939,76.288,4.202,111.163,18.662c24.589,10.195,43.314,31.701,54.384,55.909c11.07,24.208,15.15,51.044,16.681,77.619&#xA;&#9;&#9;c1.505,26.119,0.606,52.714-6.876,77.784c-7.482,25.07-22.05,48.652-43.687,63.362c-25.713,17.481-58.647,20.859-89.622,18.158&#xA;&#9;&#9;c-28.519-2.487-56.662-9.011-84.901-13.528c-29.11-4.656-58.349-12.613-87.859-5.885c-10.402,2.372-20.398,6.419-30.907,8.261&#xA;&#9;&#9;c-10.509,1.842-22.088,1.196-30.741-5.046" style="fill:#EFEEFF;"/>
	<ellipse ry="29.131" rx="226.149" cy="402.856" cx="250" style="fill:#D7D7FF;"/>
</g>
<g id="OBJECTS">
	<g>
		<g>
			<path d="M132.114,362.706c-1.557,3.34-3.811,5.992-6.535,8.029c-1.125,0.842-2.331,1.581-3.6,2.216&#xA;&#9;&#9;&#9;&#9;c-9.766,4.897-23.289,3.842-33.068-0.94c-1.738-0.851-3.358-1.818-4.816-2.892c-0.015-0.008-0.026-0.019-0.04-0.027&#xA;&#9;&#9;&#9;&#9;c-7.581-5.593-12.739-14.362-13.947-23.707c-0.031-0.236-0.058-0.47-0.084-0.707c-0.141-1.233-0.24-2.482-0.409-3.708&#xA;&#9;&#9;&#9;&#9;c-0.205-1.497-0.513-2.965-1.128-4.344c-2.976-6.675-11.396-8.433-17.65-12.213c-1.409-0.851-2.728-1.841-3.945-2.945&#xA;&#9;&#9;&#9;&#9;c-1.094-0.992-2.102-2.076-3.016-3.234c-2.933-3.719-4.891-8.212-5.502-12.911c-0.553-4.258-0.09-8.724,0.069-13.084&#xA;&#9;&#9;&#9;&#9;c0.046-1.294,0.067-2.578,0.026-3.846c-0.113-3.474-0.688-6.814-2.439-9.844c-1.82-3.152-4.723-5.526-6.881-8.459&#xA;&#9;&#9;&#9;&#9;c-0.609-0.828-1.149-1.7-1.616-2.608c-0.578-1.118-1.048-2.286-1.411-3.49c-1.659-5.46-1.141-11.613,1.462-16.684&#xA;&#9;&#9;&#9;&#9;c0.686-1.334,1.516-2.592,2.488-3.745c0.116-0.137,0.236-0.274,0.357-0.41c1.923-2.152,4.441-3.968,7.314-4.246&#xA;&#9;&#9;&#9;&#9;c3.75-0.361,6.743,1.756,9.674,4.311c1.08,0.941,2.149,1.942,3.247,2.901c1.763,1.539,3.591,2.97,5.634,3.865&#xA;&#9;&#9;&#9;&#9;c4.492,1.971,9.808,1.225,14.541,2.234c1.226,0.26,2.412,0.637,3.534,1.214c0.131,0.066,0.26,0.134,0.391,0.207&#xA;&#9;&#9;&#9;&#9;c7.106,3.977,7.71,13.674,10.388,21.363c0.696,2.001,1.632,3.998,3.23,5.392c0.15,0.131,0.305,0.255,0.462,0.371&#xA;&#9;&#9;&#9;&#9;c1.022,0.765,2.183,1.255,3.416,1.599c2.252,0.632,4.743,0.787,7.056,1.255c9.12,1.849,16.67,9.814,18.023,19.022&#xA;&#9;&#9;&#9;&#9;c0.624,4.245,0.063,8.683,0.068,12.982c0.005,2.228,0.16,4.42,0.715,6.528c0.215,0.82,0.492,1.628,0.842,2.42&#xA;&#9;&#9;&#9;&#9;c2.101,4.751,6.511,8.007,9.718,12.094c0.674,0.857,1.29,1.759,1.847,2.697c0.765,1.285,1.417,2.64,1.953,4.041&#xA;&#9;&#9;&#9;&#9;C134.855,349.606,134.916,356.695,132.114,362.706z" style="fill:#ECBF4C;"/>
			<path d="M119.729,364.058c-0.338,0.509-0.697,0.982-1.108,1.393c2.054,2.073,4.398,3.858,6.959,5.284&#xA;&#9;&#9;&#9;&#9;c-1.125,0.842-2.331,1.581-3.6,2.216c-2.55-1.621-4.893-3.578-6.937-5.801c-0.714,0.144-1.44,0.253-2.149,0.385l-23.982,4.475&#xA;&#9;&#9;&#9;&#9;c-1.738-0.851-3.358-1.818-4.816-2.892l13.024-2.429c5.085-0.951,10.17-1.899,15.256-2.848&#xA;&#9;&#9;&#9;&#9;c-2.813-4.001-4.646-8.512-5.767-13.356c-0.622-2.679-1.091-5.389-1.691-8.07c-2.863,0.449-5.788,0.671-8.672,0.927&#xA;&#9;&#9;&#9;&#9;c-8.725,0.779-17.47,1.122-26.221,1.336c-0.141-1.233-0.24-2.482-0.409-3.708c3.352-0.077,6.704-0.172,10.053-0.305&#xA;&#9;&#9;&#9;&#9;c5.828-0.231,11.656-0.56,17.462-1.116c1.563-0.15,3.125-0.315,4.686-0.496c0.709-0.083,1.419-0.161,2.128-0.257&#xA;&#9;&#9;&#9;&#9;c0.015-0.003,0.03-0.004,0.048-0.006c-0.775-2.589-1.807-5.082-3.088-7.469c-2.837-5.286-6.845-9.979-11.689-13.529&#xA;&#9;&#9;&#9;&#9;c-2.372-1.739-4.953-3.142-7.519-4.565c-1.086,0.555-2.367,0.816-3.515,1.152c-1.392,0.409-2.79,0.801-4.192,1.178&#xA;&#9;&#9;&#9;&#9;c-8.932,2.411-18.002,4.234-27.098,5.913c-1.094-0.992-2.102-2.076-3.016-3.234c4.404-0.802,8.802-1.63,13.185-2.534&#xA;&#9;&#9;&#9;&#9;c5.685-1.174,11.347-2.472,16.948-4.009c1.133-0.31,2.261-0.634,3.39-0.965c-1.378-0.867-2.715-1.801-3.968-2.865&#xA;&#9;&#9;&#9;&#9;c-4.452-3.786-6.955-9.114-8.706-14.576c-0.697-2.167-1.272-4.375-1.843-6.585c-8.181,1.686-16.33,3.531-24.439,5.54&#xA;&#9;&#9;&#9;&#9;c0.046-1.294,0.067-2.578,0.026-3.846c7.785-1.916,15.606-3.683,23.458-5.302c-0.585-2.13-1.227-4.241-2.036-6.298&#xA;&#9;&#9;&#9;&#9;c-0.973-2.479-2.173-4.936-3.831-7.034c-1.752-2.21-3.908-3.929-6.322-5.367c-1.07-0.638-2.172-1.221-3.288-1.782&#xA;&#9;&#9;&#9;&#9;c-1.416,0.91-3.511,1.088-5.023,1.46c-2.263,0.556-4.527,1.112-6.792,1.668c-2.367,0.581-4.734,1.162-7.103,1.743&#xA;&#9;&#9;&#9;&#9;c-0.578-1.118-1.048-2.286-1.411-3.49c2.281-0.562,4.563-1.122,6.845-1.682c1.981-0.485,3.962-0.973,5.944-1.459l2.616-0.642&#xA;&#9;&#9;&#9;&#9;c-2.397-1.186-4.741-2.457-6.866-4.104c-3.032-2.347-5.464-5.374-7.076-8.798c0.686-1.334,1.516-2.592,2.488-3.745&#xA;&#9;&#9;&#9;&#9;c0.005,0.014,0.009,0.03,0.014,0.044c1.889,5.816,6.333,9.721,11.584,12.502c1.02,0.541,2.057,1.056,3.097,1.563&#xA;&#9;&#9;&#9;&#9;c0.053-0.274,0.105-0.548,0.158-0.822c0.189-0.986,0.378-1.974,0.564-2.962c0.37-1.977,0.734-3.955,1.091-5.934&#xA;&#9;&#9;&#9;&#9;c0.285-1.577,0.564-3.157,0.838-4.736c1.08,0.941,2.149,1.942,3.247,2.901c-0.187,1.058-0.376,2.115-0.568,3.174&#xA;&#9;&#9;&#9;&#9;c-0.396,2.191-0.801,4.38-1.213,6.568c-0.214,1.129-0.431,2.257-0.65,3.384c-0.007,0.04-0.014,0.079-0.021,0.119&#xA;&#9;&#9;&#9;&#9;c2.887,1.456,5.689,3.049,8.131,5.244c4.111,3.696,6.337,8.454,7.965,13.524c2.434-8.574,4.612-17.213,6.53-25.915&#xA;&#9;&#9;&#9;&#9;c1.226,0.26,2.412,0.637,3.534,1.214c-2.334,10.59-5.055,21.094-8.155,31.487c0.922,3.529,1.828,7.053,3.126,10.332&#xA;&#9;&#9;&#9;&#9;c0.984,2.486,2.197,4.942,3.87,7.039c1.837,2.302,4.122,4.064,6.623,5.593c0.3,0.184,0.603,0.365,0.908,0.543&#xA;&#9;&#9;&#9;&#9;c0.77-2.511,1.472-5.047,2.211-7.569c1.963-6.698,3.925-13.394,5.888-20.092c1.022,0.765,2.183,1.255,3.416,1.599&#xA;&#9;&#9;&#9;&#9;c-0.524,1.786-1.048,3.575-1.572,5.363c-1.722,5.871-3.441,11.742-5.162,17.614c-0.451,1.537-0.884,3.081-1.352,4.613&#xA;&#9;&#9;&#9;&#9;c-0.034,0.113-0.072,0.224-0.109,0.336c1.251,0.684,2.502,1.367,3.725,2.099c2.631,1.57,5.088,3.409,7.344,5.483&#xA;&#9;&#9;&#9;&#9;c4.418,4.054,8.033,9.076,10.462,14.56c0.464,1.046,0.865,2.105,1.226,3.173c0.081-0.154,0.159-0.309,0.24-0.463&#xA;&#9;&#9;&#9;&#9;c0.662-1.275,1.327-2.549,1.995-3.823c2.75-5.249,5.535-10.482,8.35-15.695c0.005,2.228,0.16,4.42,0.715,6.528&#xA;&#9;&#9;&#9;&#9;c-2.532,4.726-5.035,9.464-7.509,14.218c-0.679,1.304-1.272,2.741-2.103,3.957c-0.085,0.124-0.174,0.24-0.267,0.352&#xA;&#9;&#9;&#9;&#9;c0.916,3.865,1.584,7.795,2.679,11.648c1.077,3.789,2.879,7.282,5.238,10.32c0.035-0.037,0.071-0.076,0.102-0.116&#xA;&#9;&#9;&#9;&#9;c0.799-1.007,1.437-2.201,2.128-3.283c1.402-2.197,2.791-4.403,4.166-6.619c2.718-4.387,5.375-8.808,7.97-13.266&#xA;&#9;&#9;&#9;&#9;c0.765,1.285,1.417,2.64,1.953,4.041c-2.713,4.615-5.494,9.189-8.339,13.727C122.69,359.447,121.24,361.776,119.729,364.058z" style="fill:#E58F31;"/>
		</g>
		<g>
			<path d="M158.75,281.929c5.614,5.082,8.909,12.913,6.489,19.97c-1.907,5.566-7.073,10.625-5.607,16.323&#xA;&#9;&#9;&#9;&#9;c0.685,2.664,2.477,4.6,4.436,6.452c0.909,0.856,1.852,1.697,2.738,2.582c1.494,1.492,2.828,3.115,3.552,5.178&#xA;&#9;&#9;&#9;&#9;c5.022,14.263-10.684,27.056-24.724,33.216c-1.578,0.692-3.132,1.3-4.633,1.817c-1.317,0.454-2.592,0.836-3.805,1.145&#xA;&#9;&#9;&#9;&#9;c-1.179,0.301-2.3,0.529-3.341,0.683c-18.431,2.73-36.331-11.297-33.983-30.631c0.039-0.322,0.081-0.646,0.133-0.971&#xA;&#9;&#9;&#9;&#9;c0.147-0.946,0.342-1.886,0.561-2.825c1.128-4.812,2.908-9.57,2.132-14.403c-0.757-4.718-3.748-8.501-7.29-11.859&#xA;&#9;&#9;&#9;&#9;c-1.792-1.7-3.726-3.29-5.581-4.837c-0.155-0.13-0.313-0.262-0.469-0.394c-5.373-4.551-10.757-10.376-10.295-17.351&#xA;&#9;&#9;&#9;&#9;c0.351-5.333,4.058-9.734,6.95-14.23c0.032-0.052,0.065-0.103,0.097-0.155c0.729-1.142,1.324-2.233,1.795-3.281&#xA;&#9;&#9;&#9;&#9;c3.282-7.302,0.467-12.432-6.405-17.99c-2.948-2.382-5.758-5.022-7.75-8.246c-1.524-2.466-2.538-5.322-2.643-8.2&#xA;&#9;&#9;&#9;&#9;c-0.032-0.885,0.022-1.771,0.173-2.648c0.068-0.389,0.151-0.768,0.253-1.141c1.766-6.572,8.374-10.872,9.404-17.696&#xA;&#9;&#9;&#9;&#9;c0.411-2.726-0.116-5.447-0.829-8.138c-0.446-1.684-0.967-3.357-1.377-5.009c-1.119-4.508-1.422-8.876,2.823-12.969&#xA;&#9;&#9;&#9;&#9;c1.27-1.226,2.78-2.166,4.414-2.818c1.322-0.528,2.728-0.867,4.156-1.016c1.389-0.146,2.801-0.112,4.178,0.104&#xA;&#9;&#9;&#9;&#9;c5.131,0.799,9.835,3.974,13.411,8.006c0.863,0.973,1.659,1.994,2.382,3.044c0.842,1.228,1.583,2.494,2.204,3.765&#xA;&#9;&#9;&#9;&#9;c3.076,6.295,4.19,14.1,9.659,18.383c0.121,0.094,0.245,0.186,0.37,0.278c0.892,0.65,1.85,1.17,2.852,1.616&#xA;&#9;&#9;&#9;&#9;c2.768,1.234,5.843,1.89,8.649,3.096c9.1,3.907,15.548,14.626,13.366,24.526c-0.691,3.134-2.117,6.033-3.444,8.968&#xA;&#9;&#9;&#9;&#9;c-0.477,1.057-0.943,2.12-1.356,3.2c-0.489,1.279-0.901,2.625-1.168,3.988c-0.59,2.99-0.499,6.065,0.94,8.695&#xA;&#9;&#9;&#9;&#9;c2.52,4.61,8.146,6.285,12.691,8.921c0.315,0.184,0.625,0.374,0.934,0.574C156.829,280.322,157.821,281.089,158.75,281.929z" style="fill:#E08675;"/>
			<path d="M132.895,311.442c-0.622,0.732-1.28,1.435-2.009,2.047c0.951,1.291,1.824,2.637,2.561,4.083&#xA;&#9;&#9;&#9;&#9;c3.596,7.058,1.471,14.46,0.342,21.824c-0.434,2.835-0.516,5.686-0.28,8.501c0.278-0.223,0.542-0.441,0.787-0.619&#xA;&#9;&#9;&#9;&#9;c1.388-1.005,2.771-2.013,4.152-3.025c2.76-2.023,5.508-4.065,8.243-6.126c5.853-4.406,11.645-8.891,17.377-13.454&#xA;&#9;&#9;&#9;&#9;c0.909,0.856,1.852,1.697,2.738,2.582c-1.337,1.068-2.678,2.131-4.024,3.189c-5.604,4.411-11.267,8.748-16.985,13.012&#xA;&#9;&#9;&#9;&#9;c-2.858,2.132-5.732,4.246-8.618,6.338c-0.976,0.71-1.991,1.592-3.091,2.224c1.105,5.587,3.478,10.897,6.913,15.448&#xA;&#9;&#9;&#9;&#9;c-1.317,0.454-2.592,0.836-3.805,1.145c-2.388-3.388-4.27-7.133-5.551-11.073c-0.511-1.576-0.91-3.158-1.215-4.744&#xA;&#9;&#9;&#9;&#9;c-0.738-0.102-1.464-0.338-2.177-0.647c-3.262-1.41-6.44-3.051-9.649-4.577c-3.268-1.555-6.539-3.109-9.806-4.662&#xA;&#9;&#9;&#9;&#9;c-2.976-1.414-5.953-2.83-8.927-4.245c0.039-0.322,0.081-0.646,0.133-0.971c0.147-0.946,0.342-1.886,0.561-2.825&#xA;&#9;&#9;&#9;&#9;c3.913,1.861,7.827,3.721,11.739,5.58c3.138,1.493,6.276,2.983,9.413,4.476c1.569,0.745,3.138,1.493,4.707,2.238&#xA;&#9;&#9;&#9;&#9;c1.108,0.526,2.268,1.234,3.455,1.669c-0.37-4.164-0.103-8.359,0.668-12.592c0.649-3.567,1.474-7.192,1.239-10.839&#xA;&#9;&#9;&#9;&#9;c-0.223-3.507-1.63-6.593-3.651-9.424c-0.171-0.236-0.343-0.472-0.52-0.706c-1.286,0.302-2.64,0.195-3.941-0.081&#xA;&#9;&#9;&#9;&#9;c-7.623-1.612-15.194-3.536-22.781-5.304c-1.828-0.426-3.658-0.852-5.486-1.278c-1.792-1.7-3.726-3.29-5.581-4.837&#xA;&#9;&#9;&#9;&#9;c-0.155-0.13-0.313-0.262-0.469-0.394c4.764,1.111,9.529,2.22,14.293,3.331c3.752,0.874,7.505,1.749,11.257,2.622&#xA;&#9;&#9;&#9;&#9;c1.84,0.429,3.683,0.857,5.524,1.288c1.373,0.32,2.789,0.761,4.201,0.99c-3.445-4.003-7.089-7.863-8.914-12.932&#xA;&#9;&#9;&#9;&#9;c-1.858-5.16-1.693-10.652-1.075-16.034c-0.887-0.164-1.755-0.514-2.597-0.818c-1.696-0.61-3.387-1.229-5.075-1.858&#xA;&#9;&#9;&#9;&#9;c-7.017-2.612-13.973-5.388-20.862-8.325c0.729-1.142,1.324-2.233,1.795-3.281c0.879,0.372,1.757,0.742,2.636,1.111&#xA;&#9;&#9;&#9;&#9;c6.391,2.675,12.839,5.21,19.339,7.609c1.649,0.609,3.316,1.348,5.014,1.815c0.083,0.023,0.158,0.043,0.229,0.056&#xA;&#9;&#9;&#9;&#9;c0.002-0.02,0.007-0.04,0.008-0.061c0.915-6.499,2.146-13.326,0.295-19.783c-1.761-6.134-5.6-11.303-9.416-16.342&#xA;&#9;&#9;&#9;&#9;c-11.861-1.951-23.545-4.917-34.903-8.843c-0.032-0.885,0.022-1.771,0.173-2.648c0.068-0.389,0.151-0.768,0.253-1.141&#xA;&#9;&#9;&#9;&#9;c10.18,3.565,20.624,6.327,31.233,8.278c-4.016-5.59-7.412-11.445-8.668-18.355c-0.472-2.613-0.676-5.249-0.794-7.894&#xA;&#9;&#9;&#9;&#9;c-0.585-0.215-1.172-0.547-1.748-0.923c-3.739-2.438-7.56-4.751-11.45-6.939c-0.446-1.684-0.967-3.357-1.377-5.009&#xA;&#9;&#9;&#9;&#9;c1.578,0.854,3.14,1.728,4.693,2.622c3.255,1.875,6.463,3.835,9.618,5.872c0.036,0.022,0.078,0.048,0.123,0.074&#xA;&#9;&#9;&#9;&#9;c-0.105-3.751-0.231-7.5-0.894-11.199c-0.855-4.761-2.742-9.799-6.304-13.156c1.322-0.528,2.728-0.867,4.156-1.016&#xA;&#9;&#9;&#9;&#9;c3.754,4.511,5.541,10.531,6.223,16.28c0.258,2.173,0.367,4.372,0.438,6.576c0.945-1.277,1.891-2.553,2.837-3.828&#xA;&#9;&#9;&#9;&#9;c2.697-3.639,5.395-7.279,8.091-10.918c0.863,0.973,1.659,1.994,2.382,3.044c-0.669,0.903-1.34,1.807-2.009,2.71&#xA;&#9;&#9;&#9;&#9;c-2.55,3.439-5.099,6.876-7.647,10.314c-1.122,1.515-2.166,3.251-3.486,4.608c0.147,3.79,0.462,7.56,1.498,11.223&#xA;&#9;&#9;&#9;&#9;c1.591,5.619,4.764,10.418,8.199,15.071c5.006-7.326,10.109-14.587,15.308-21.778c0.121,0.094,0.245,0.186,0.37,0.278&#xA;&#9;&#9;&#9;&#9;c0.892,0.65,1.85,1.17,2.852,1.616c-5.497,7.599-10.892,15.275-16.178,23.023c4.74,6.286,9.415,12.592,10.712,20.629&#xA;&#9;&#9;&#9;&#9;c0.78,4.831,0.28,9.712-0.388,14.549c2.24-1.983,4.479-3.962,6.719-5.945c5.903-5.221,11.805-10.444,17.707-15.667&#xA;&#9;&#9;&#9;&#9;c-0.477,1.057-0.943,2.12-1.356,3.2c-0.489,1.279-0.901,2.625-1.168,3.988c-5.312,4.699-10.62,9.399-15.932,14.098&#xA;&#9;&#9;&#9;&#9;c-1.415,1.251-2.83,2.502-4.243,3.752c-0.793,0.703-1.617,1.593-2.528,2.288c-0.818,6.279-1.219,12.974,2.009,18.69&#xA;&#9;&#9;&#9;&#9;c2.158,3.818,5.22,6.968,8.039,10.298c0.317-0.275,0.621-0.58,0.91-0.9c1.202-1.322,2.301-2.749,3.444-4.123&#xA;&#9;&#9;&#9;&#9;c2.34-2.806,4.704-5.593,7.092-8.358c5.142-5.954,10.403-11.806,15.771-17.555c1.038,0.673,2.031,1.44,2.959,2.28&#xA;&#9;&#9;&#9;&#9;c-1.173,1.254-2.342,2.515-3.504,3.78c-5.132,5.591-10.161,11.274-15.08,17.05C137.717,305.633,135.345,308.57,132.895,311.442z" style="fill:#FFFFFF;"/>
		</g>
	</g>
	<g>
		<g>
			<rect height="87.018" width="121.723" style="fill:#FFFFFF;" y="309.524" x="64.999"/>
			<rect height="13.269" width="121.723" style="fill:#C3B7FC;" y="296.255" x="64.999"/>
			<g>
				<path d="M172.176,302.889c0,1.832-1.485,3.317-3.317,3.317c-1.832,0-3.317-1.485-3.317-3.317&#xA;&#9;&#9;&#9;&#9;&#9;c0-1.832,1.485-3.317,3.317-3.317C170.691,299.572,172.176,301.057,172.176,302.889z" style="fill:#ECBF4C;"/>
				<path d="M182.383,302.889c0,1.832-1.485,3.317-3.318,3.317c-1.832,0-3.317-1.485-3.317-3.317&#xA;&#9;&#9;&#9;&#9;&#9;c0-1.832,1.485-3.317,3.317-3.317C180.898,299.572,182.383,301.057,182.383,302.889z" style="fill:#DD6E5C;"/>
			</g>
			<rect height="48.995" width="47.464" style="fill:#E08675;" y="320.752" x="73.42"/>
			<polygon points="120.884,369.748 73.42,369.748 73.42,320.752" style="fill:#EA9A8F;"/>
			<rect height="28.556" width="47.464" style="fill:#ECBF4C;" y="362.858" x="130.836"/>
			<polygon points="178.301,391.413 130.836,391.413 130.836,362.858" style="fill:#F2C96D;"/>
			<rect height="5.359" width="48.23" style="fill:#F5DDA0;" y="321.007" x="130.836"/>
			<rect height="5.359" width="48.23" style="fill:#F5DDA0;" y="333.767" x="130.836"/>
			<rect height="5.359" width="48.23" style="fill:#F5DDA0;" y="346.526" x="130.836"/>
		</g>
		<g>
			<rect height="129.889" width="121.723" style="fill:#FFFFFF;" y="266.398" x="337.2"/>
			<rect height="13.27" width="121.723" style="fill:#C3B7FC;" y="253.128" x="337.2"/>
			<g>
				<circle r="3.317" cy="259.763" cx="441.06" style="fill:#ECBF4C;"/>
				<path d="M454.585,259.763c0,1.832-1.485,3.317-3.317,3.317c-1.832,0-3.318-1.485-3.318-3.317&#xA;&#9;&#9;&#9;&#9;&#9;c0-1.832,1.485-3.317,3.318-3.317C453.1,256.446,454.585,257.931,454.585,259.763z" style="fill:#DD6E5C;"/>
			</g>
			<rect height="45.933" width="51.292" style="fill:#E08675;" y="274.819" x="343.325"/>
			<polygon points="394.617,320.752 343.325,320.752 343.325,274.819" style="fill:#EA9A8F;"/>
			<rect height="27.049" width="32.408" style="fill:#ECBF4C;" y="332.746" x="344.09"/>
			<rect height="27.049" width="68.645" style="fill:#C3B7FC;" y="332.746" x="384.154"/>
			<polygon points="452.799,359.795 384.154,359.795 384.154,332.746" style="opacity:0.47;fill:#A797FB;"/>
			<rect height="6.124" width="50.271" style="fill:#DFDBFC;" y="275.074" x="402.527"/>
			<rect height="6.124" width="50.271" style="fill:#DFDBFC;" y="288.089" x="402.527"/>
			<rect height="6.124" width="50.271" style="fill:#DFDBFC;" y="301.103" x="402.527"/>
			<rect height="6.124" width="50.271" style="fill:#DFDBFC;" y="314.117" x="402.527"/>
			<rect height="6.124" width="50.271" style="fill:#DFDBFC;" y="367.196" x="402.527"/>
			<rect height="5.869" width="72.727" style="fill:#DFDBFC;" y="380.72" x="380.071"/>
		</g>
	</g>
	<path d="M454.199,197.726v28.734c0,0.957-0.171,1.884-0.484,2.74c-1.118,3.073-4.07,5.259-7.526,5.259&#xA;&#9;&#9;h-47.715c-4.423,0-8-3.577-8-7.999v-28.734c0-3.234,1.914-6.025,4.665-7.294c1.017-0.453,2.146-0.715,3.335-0.715h47.715&#xA;&#9;&#9;C450.613,189.717,454.199,193.303,454.199,197.726z" style="fill:#DD6E5C;"/>
	<g>
		<g>
			<g>
				<polygon points="300.386,389.554 214.334,389.554 219.03,360.296 224.829,324.154 289.891,324.154 &#xA;&#9;&#9;&#9;&#9;&#9;295.69,360.296" style="fill:#FFFFFF;"/>
				<polygon points="295.69,360.296 219.03,360.296 224.829,324.154 289.891,324.154" style="opacity:0.47;fill:#A797FB;"/>
				<g>
					<path d="M378.263,193.542v144.194c0,7.707-6.248,13.955-13.955,13.955H150.412&#xA;&#9;&#9;&#9;&#9;&#9;&#9;c-7.707,0-13.955-6.247-13.955-13.955V193.542c0-7.707,6.247-13.955,13.955-13.955h213.896&#xA;&#9;&#9;&#9;&#9;&#9;&#9;C372.015,179.587,378.263,185.835,378.263,193.542z" style="fill:#A797FB;"/>
					<rect height="135.102" width="217.711" style="fill:#514E92;" y="190.774" x="148.504"/>
					<path d="M378.263,317.27v20.466c0,7.707-6.248,13.955-13.955,13.955H150.412&#xA;&#9;&#9;&#9;&#9;&#9;&#9;c-7.707,0-13.955-6.247-13.955-13.955V317.27H378.263z" style="fill:#C3B7FC;"/>
				</g>
			</g>
			<path d="M299.708,397.012h-86.711c-3.145,0-5.694-2.549-5.694-5.694v-0.085&#xA;&#9;&#9;&#9;&#9;c0-3.145,2.549-5.694,5.694-5.694h86.711c3.145,0,5.694,2.549,5.694,5.694v0.085&#xA;&#9;&#9;&#9;&#9;C305.402,394.462,302.853,397.012,299.708,397.012z" style="fill:#C3B7FC;"/>
		</g>
		<g>
			<g>
				<g>
					<rect height="147.796" width="150.882" style="fill:#FFFFFF;" y="169.474" x="180.559"/>
					<rect height="16.353" width="150.882" style="fill:#514E92;" y="153.198" x="180.559"/>
					<g>
						<circle r="4.32" cy="161.374" cx="308.608" style="fill:#ECBF4C;"/>
						<circle r="4.32" cy="161.374" cx="320.95" style="fill:#DD6E5C;"/>
					</g>
				</g>
				
					<ellipse ry="10.491" rx="10.491" cy="195.084" cx="199.997" style="fill:#DD6E5C;" transform="matrix(0.1607 -0.987 0.987 0.1607 -24.6918 361.1304)"/>
				<circle r="10.491" cy="225.322" cx="199.997" style="fill:#DD6E5C;"/>
				<g>
					<rect height="6.171" width="54.305" style="fill:#DFDBFC;" y="182.742" x="222.213"/>
					<rect height="6.171" width="42.58" style="fill:#DFDBFC;" y="208.66" x="222.213"/>
					<rect height="6.171" width="42.58" style="fill:#DFDBFC;" y="221.928" x="222.213"/>
					<rect height="6.171" width="75.287" style="fill:#DFDBFC;" y="195.701" x="222.213"/>
				</g>
				<g>
					<rect height="25.301" width="25.301" style="fill:#DFDBFC;" y="283.638" x="196.295"/>
					<polygon points="221.596,308.939 196.295,308.939 196.295,283.638" style="opacity:0.45;fill:#C3B7FC;"/>
					<rect height="25.301" width="25.301" style="fill:#DFDBFC;" y="283.638" x="228.384"/>
					<polygon points="253.685,308.939 228.384,308.939 228.384,283.638" style="opacity:0.45;fill:#C3B7FC;"/>
					<rect height="25.301" width="25.301" style="fill:#DFDBFC;" y="283.638" x="260.474"/>
					<polygon points="285.775,308.939 260.474,308.939 260.474,283.638" style="opacity:0.45;fill:#C3B7FC;"/>
					<rect height="25.301" width="25.301" style="fill:#DFDBFC;" y="283.638" x="292.563"/>
					<polygon points="317.864,308.939 292.563,308.939 292.563,283.638" style="opacity:0.45;fill:#C3B7FC;"/>
				</g>
			</g>
			<g>
				<g>
					<path d="M368.732,247.686v20.991c0,5.17-4.228,9.398-9.398,9.398H154.956&#xA;&#9;&#9;&#9;&#9;&#9;&#9;c-5.17,0-9.398-4.228-9.398-9.398v-20.991c0-5.17,4.228-9.398,9.398-9.398h204.379&#xA;&#9;&#9;&#9;&#9;&#9;&#9;C364.504,238.288,368.732,242.516,368.732,247.686z" style="fill:#FFFFFF;"/>
					<path d="M368.732,247.686v20.991c0,5.17-4.228,9.398-9.398,9.398h-38.392v-39.787h38.392&#xA;&#9;&#9;&#9;&#9;&#9;&#9;C364.504,238.288,368.732,242.516,368.732,247.686z" style="fill:#ECBF4C;"/>
					<path d="M358.788,269.931l-8.069-8.233l-1.368-1.396c2.521-3.819,2.133-9.02-1.198-12.418&#xA;&#9;&#9;&#9;&#9;&#9;&#9;c-3.832-3.911-10.133-3.975-14.044-0.142c-3.911,3.833-3.975,10.133-0.142,14.044c3.329,3.398,8.52,3.892,12.39,1.45l0,0&#xA;&#9;&#9;&#9;&#9;&#9;&#9;l1.368,1.396l8.069,8.233c0.704,0.719,1.858,0.731,2.576,0.027l0.391-0.383C359.48,271.804,359.492,270.65,358.788,269.931z&#xA;&#9;&#9;&#9;&#9;&#9;&#9; M335.464,260.319c-3.024-3.086-2.974-8.056,0.112-11.081c3.086-3.024,8.057-2.973,11.081,0.112&#xA;&#9;&#9;&#9;&#9;&#9;&#9;c2.516,2.568,2.903,6.441,1.184,9.411c-0.346,0.6-0.779,1.162-1.297,1.67c-0.519,0.508-1.09,0.929-1.697,1.264&#xA;&#9;&#9;&#9;&#9;&#9;&#9;C341.843,263.353,337.98,262.886,335.464,260.319z" style="fill:#FFFFFF;"/>
				</g>
				<g>
					<g>
						<path d="M359.334,279.724H154.956c-6.091,0-11.047-4.956-11.047-11.047v-20.991&#xA;&#9;&#9;&#9;&#9;&#9;&#9;&#9;c0-6.092,4.956-11.047,11.047-11.047h204.378c6.091,0,11.047,4.956,11.047,11.047v20.991&#xA;&#9;&#9;&#9;&#9;&#9;&#9;&#9;C370.381,274.768,365.425,279.724,359.334,279.724z M154.956,239.937c-4.273,0-7.749,3.476-7.749,7.749v20.991&#xA;&#9;&#9;&#9;&#9;&#9;&#9;&#9;c0,4.273,3.476,7.749,7.749,7.749h204.378c4.273,0,7.749-3.476,7.749-7.749v-20.991c0-4.273-3.476-7.749-7.749-7.749H154.956z" style="fill:#ECBF4C;"/>
					</g>
					<path d="M368.732,247.686v20.991c0,5.17-4.228,9.398-9.398,9.398h-38.392v-39.787h38.392&#xA;&#9;&#9;&#9;&#9;&#9;&#9;C364.504,238.288,368.732,242.516,368.732,247.686z" style="fill:none;"/>
					<path d="M358.788,269.931l-8.069-8.233l-1.368-1.396c2.521-3.819,2.133-9.02-1.198-12.418&#xA;&#9;&#9;&#9;&#9;&#9;&#9;c-3.832-3.911-10.133-3.975-14.044-0.142c-3.911,3.833-3.975,10.133-0.142,14.044c3.329,3.398,8.52,3.892,12.39,1.45l0,0&#xA;&#9;&#9;&#9;&#9;&#9;&#9;l1.368,1.396l8.069,8.233c0.704,0.719,1.858,0.731,2.576,0.027l0.391-0.383C359.48,271.804,359.492,270.65,358.788,269.931z&#xA;&#9;&#9;&#9;&#9;&#9;&#9; M335.464,260.319c-3.024-3.086-2.974-8.056,0.112-11.081c3.086-3.024,8.057-2.973,11.081,0.112&#xA;&#9;&#9;&#9;&#9;&#9;&#9;c2.516,2.568,2.903,6.441,1.184,9.411c-0.346,0.6-0.779,1.162-1.297,1.67c-0.519,0.508-1.09,0.929-1.697,1.264&#xA;&#9;&#9;&#9;&#9;&#9;&#9;C341.843,263.353,337.98,262.886,335.464,260.319z" style="fill:none;"/>
				</g>
			</g>
		</g>
	</g>
	<g>
		<path d="M436.762,386.322c-0.024,0.082-0.05,0.162-0.077,0.241c-0.701,2.099-2.259,3.833-3.908,5.356&#xA;&#9;&#9;&#9;c-4.406,4.065-9.995,6.982-16.072,8.761c-1.716,0.503-3.473,0.916-5.252,1.237c-0.776,0.139-1.557,0.263-2.34,0.368&#xA;&#9;&#9;&#9;c-0.803,0.108-1.608,0.199-2.416,0.271c-0.184,0.016-0.366,0.031-0.549,0.046c-0.707,0.057-1.414,0.098-2.122,0.127&#xA;&#9;&#9;&#9;c-0.008,0-0.018,0.001-0.028,0.001c-0.679,0.026-1.358,0.041-2.038,0.042c-0.098,0.001-0.197,0.001-0.296,0&#xA;&#9;&#9;&#9;c-0.737-0.001-1.474-0.018-2.208-0.052c-0.722-0.03-1.442-0.076-2.159-0.137c-1.188-0.099-2.369-0.239-3.538-0.418&#xA;&#9;&#9;&#9;c-3.936-0.602-7.731-1.652-11.208-3.149c-6.452-2.777-11.937-8.883-11.625-15.754c0.013-0.283,0.037-0.566,0.072-0.85&#xA;&#9;&#9;&#9;c0.091-0.757,0.26-1.511,0.511-2.233c0.55-1.595,1.488-3.045,2.839-4.08c2.191-1.679,5.543-2.001,7.76-0.353&#xA;&#9;&#9;&#9;c-2.619-3.625-5.333-7.504-5.61-11.931c-0.131-2.08,0.523-4.275,1.726-6.005c0.418-0.602,0.902-1.15,1.444-1.615&#xA;&#9;&#9;&#9;c1.212-1.042,2.709-1.679,4.374-1.636c3.342,0.086,5.967,2.695,8.201,5.121c-0.464-4.748-0.19-9.564,0.809-14.232&#xA;&#9;&#9;&#9;c0.353-1.644,0.923-3.443,2.419-4.273c0.187-0.105,0.379-0.189,0.574-0.252c0.66-0.222,1.351-0.221,2.035-0.06&#xA;&#9;&#9;&#9;c1.598,0.373,3.156,1.62,4.196,2.957c2.62,3.371,4.029,7.619,3.928,11.849c1.197-5.525,3.502-10.82,6.747-15.497&#xA;&#9;&#9;&#9;c0.734-1.059,1.57-2.128,2.765-2.651c0.856-0.373,1.797-0.408,2.7-0.193c0.672,0.16,1.324,0.455,1.905,0.851&#xA;&#9;&#9;&#9;c0.424,0.288,0.809,0.629,1.136,1.007c1.382,1.597,1.947,3.711,2.308,5.77c1.032,5.873,0.738,11.966-0.854,17.719&#xA;&#9;&#9;&#9;c1.28-1.599,2.625-3.249,4.487-4.154c1.638-0.796,3.799-0.833,5.205,0.229c0.193,0.145,0.371,0.311,0.532,0.498&#xA;&#9;&#9;&#9;c0.334,0.389,0.566,0.833,0.725,1.307c0.314,0.937,0.341,1.997,0.288,2.997c-0.34,6.421-3.198,12.682-7.863,17.225&#xA;&#9;&#9;&#9;c2.755-1.288,6.201-2.415,8.685-0.682c1.233,0.859,1.891,2.273,2.03,3.759C437.08,384.683,436.997,385.533,436.762,386.322z" style="fill:#8690F1;"/>
		<g>
			<path d="M397.299,402.585c-1.188-0.099-2.369-0.239-3.538-0.418c-3.79-3.364-7.598-6.705-11.425-10.025&#xA;&#9;&#9;&#9;&#9;c-3.761-3.263-7.539-6.506-11.336-9.727c0.091-0.757,0.26-1.511,0.511-2.233c1.275,1.079,2.547,2.161,3.817,3.245&#xA;&#9;&#9;&#9;&#9;c6.448,5.504,12.846,11.066,19.191,16.688C395.447,400.937,396.374,401.76,397.299,402.585z" style="fill:#DFDBFC;"/>
			<path d="M401.666,402.773c-0.737-0.001-1.474-0.018-2.208-0.052c-0.346-0.851-0.694-1.701-1.045-2.548&#xA;&#9;&#9;&#9;&#9;c-3.244-7.827-6.711-15.561-10.389-23.194c-3.114-6.466-6.382-12.857-9.797-19.168c0.418-0.602,0.902-1.15,1.444-1.615&#xA;&#9;&#9;&#9;&#9;c1.775,3.268,3.51,6.557,5.205,9.868c3.9,7.621,7.587,15.35,11.054,23.177C397.912,393.722,399.825,398.233,401.666,402.773z" style="fill:#DFDBFC;"/>
			<path d="M404,402.731c-0.679,0.026-1.358,0.041-2.038,0.042c-1.057-11.062-2.117-22.125-3.174-33.187&#xA;&#9;&#9;&#9;&#9;c-0.914-9.554-1.828-19.108-2.741-28.662c0.66-0.222,1.351-0.221,2.035-0.06c0.447,4.673,0.894,9.347,1.341,14.021&#xA;&#9;&#9;&#9;&#9;c1.07,11.184,2.14,22.367,3.21,33.551C403.09,393.201,403.546,397.966,404,402.731z" style="fill:#DFDBFC;"/>
			<path d="M420.323,338.18c-1.139,5.361-2.287,10.72-3.446,16.076c-2.321,10.735-4.68,21.462-7.078,32.18&#xA;&#9;&#9;&#9;&#9;c-1.206,5.391-2.423,10.78-3.649,16.166c-0.707,0.057-1.414,0.098-2.122,0.127c0.213-0.935,0.426-1.87,0.64-2.803&#xA;&#9;&#9;&#9;&#9;c2.431-10.711,4.824-21.431,7.179-32.159c2.225-10.138,4.415-20.285,6.572-30.439C419.09,337.488,419.742,337.784,420.323,338.18&#xA;&#9;&#9;&#9;&#9;z" style="fill:#DFDBFC;"/>
			<path d="M433.861,360.556c-1.439,2.257-2.866,4.523-4.28,6.797c-5.393,8.672-10.607,17.456-15.636,26.345&#xA;&#9;&#9;&#9;&#9;c-1.604,2.838-3.256,5.691-4.832,8.587c-0.803,0.108-1.608,0.199-2.416,0.271c4.386-8.323,9.181-16.457,13.999-24.531&#xA;&#9;&#9;&#9;&#9;c3.87-6.485,7.84-12.911,11.907-19.275c0.193,0.145,0.371,0.311,0.532,0.498C433.47,359.638,433.703,360.082,433.861,360.556z" style="fill:#DFDBFC;"/>
			<path d="M436.762,386.322c-0.024,0.082-0.05,0.162-0.077,0.241c-0.256,0.18-0.511,0.359-0.767,0.539&#xA;&#9;&#9;&#9;&#9;c-6.415,4.511-12.819,9.037-19.212,13.578c-1.716,0.503-3.473,0.916-5.252,1.237c4.464-3.178,8.935-6.349,13.41-9.512&#xA;&#9;&#9;&#9;&#9;c4.042-2.856,8.087-5.706,12.138-8.551C437.08,384.683,436.997,385.533,436.762,386.322z" style="fill:#DFDBFC;"/>
		</g>
	</g>
	<g style="display:none;">
		<path d="M185.496,350.676l-37.658,48.631c-3.042,3.927-8.577,4.789-12.649,2.079&#xA;&#9;&#9;&#9;c-0.191-0.124-0.378-0.259-0.561-0.399c-4.113-3.185-4.864-9.097-1.679-13.21l37.655-48.633l7.788,6.033L185.496,350.676z" style="display:inline;fill:#E08675;"/>
		<path d="M178.392,345.177l-43.203,56.209c-0.191-0.124-0.378-0.259-0.561-0.399&#xA;&#9;&#9;&#9;c-4.113-3.185-4.864-9.097-1.679-13.21l37.655-48.633L178.392,345.177z" style="display:inline;fill:#DD6E5C;"/>
		
			<rect height="21.129" width="14.425" style="display:inline;fill:#A797FB;" transform="matrix(0.7907 0.6122 -0.6122 0.7907 245.963 -40.5727)" y="328.847" x="175.103"/>
		<path d="M240.117,264.754c-19.684-15.244-48-11.642-63.242,8.044&#xA;&#9;&#9;&#9;c-15.24,19.683-11.64,47.997,8.044,63.241c19.686,15.242,47.997,11.64,63.242-8.044&#xA;&#9;&#9;&#9;C263.402,308.31,259.803,279.996,240.117,264.754z M196.352,332.635c-2.05-1.027-4.03-2.266-5.912-3.725&#xA;&#9;&#9;&#9;c-0.152-0.117-0.302-0.236-0.452-0.355c-1.599-1.278-3.059-2.667-4.378-4.148c-1.471-1.647-2.766-3.405-3.881-5.253&#xA;&#9;&#9;&#9;c-2.773-4.569-4.454-9.667-4.997-14.893c-0.435-4.214-0.132-8.516,0.951-12.681c1.181-4.57,3.289-8.98,6.363-12.947&#xA;&#9;&#9;&#9;c10.443-13.485,28.599-17.477,43.436-10.568c2.38,1.108,4.677,2.497,6.842,4.173c1.271,0.985,2.458,2.037,3.558,3.153&#xA;&#9;&#9;&#9;c3.821,3.855,6.608,8.426,8.321,13.323c0.721,2.062,1.252,4.186,1.588,6.333c0.311,1.988,0.452,4.001,0.426,6.018&#xA;&#9;&#9;&#9;c-0.033,2.511-0.326,5.03-0.892,7.503c-1.125,4.924-3.311,9.692-6.607,13.947C230.056,336.28,211.352,340.154,196.352,332.635z" style="display:inline;fill:#DD6E5C;"/>
		<g style="display:inline;opacity:0.31;">
			<g>
				<path d="M237.882,275.391l-61.151,28.872c-0.437-4.217-0.13-8.518,0.952-12.685l49.797-23.512&#xA;&#9;&#9;&#9;&#9;&#9;c2.382,1.108,4.677,2.496,6.841,4.172C235.594,273.224,236.781,274.276,237.882,275.391z" style="fill:#FFFFFF;"/>
				<path d="M247.791,295.048l-62.181,29.358c-1.469-1.646-2.766-3.404-3.882-5.251l64.476-30.44&#xA;&#9;&#9;&#9;&#9;&#9;C246.924,290.779,247.456,292.9,247.791,295.048z" style="fill:#FFFFFF;"/>
			</g>
		</g>
		<path d="M183.065,356.783l-17.432-13.498c-1.048-0.812-1.24-2.319-0.428-3.367l2.704-3.491&#xA;&#9;&#9;&#9;c0.812-1.048,2.319-1.24,3.367-0.428l17.431,13.498c1.048,0.812,1.24,2.319,0.428,3.367l-2.703,3.491&#xA;&#9;&#9;&#9;C185.621,357.403,184.113,357.595,183.065,356.783z" style="display:inline;fill:#FFFFFF;"/>
	</g>
	<g>
		<g>
			<path d="M453.716,229.201c-1.118,3.073-4.07,5.259-7.526,5.259h-47.715c-4.423,0-8-3.577-8-7.999v-28.734&#xA;&#9;&#9;&#9;&#9;c0-3.234,1.914-6.025,4.665-7.294L453.716,229.201z" style="fill:#E08675;"/>
			<path d="M411.509,200.25v23.686c0,1.698,1.812,2.782,3.308,1.978l21.679-11.642&#xA;&#9;&#9;&#9;&#9;c1.565-0.84,1.581-3.079,0.028-3.942l-21.678-12.044C413.348,197.455,411.509,198.537,411.509,200.25z" style="fill:#FFFFFF;"/>
		</g>
		<g>
			<g>
				<path d="M158.459,160.64v24.623c0,2.68-0.877,5.169-2.348,7.194c-2.237,3.063-5.844,5.058-9.904,5.058&#xA;&#9;&#9;&#9;&#9;&#9;h-24.613c-6.74,0-12.261-5.511-12.261-12.251V160.64c0-4.05,1.995-7.667,5.058-9.904c2.025-1.471,4.524-2.347,7.204-2.347&#xA;&#9;&#9;&#9;&#9;&#9;h24.613C152.948,148.389,158.459,153.9,158.459,160.64z" style="fill:#ECBF4C;"/>
				<path d="M156.111,192.457c-2.237,3.063-5.844,5.058-9.904,5.058h-24.613&#xA;&#9;&#9;&#9;&#9;&#9;c-6.74,0-12.261-5.511-12.261-12.251V160.64c0-4.05,1.995-7.667,5.058-9.904L156.111,192.457z" style="opacity:0.29;fill:#FFFFFF;"/>
			</g>
			<g>
				<path d="M136.944,182.564h-15.703c-2.29,0-4.163-1.874-4.163-4.163v-10.897&#xA;&#9;&#9;&#9;&#9;&#9;c0-2.29,1.874-4.163,4.163-4.163h15.702c2.29,0,4.163,1.874,4.163,4.163v10.897&#xA;&#9;&#9;&#9;&#9;&#9;C141.108,180.691,139.234,182.564,136.944,182.564z" style="fill:#FFFFFF;"/>
				<path d="M143.401,169.044c-0.248,0.068-0.425,0.347-0.425,0.67v0.681v5.116v0.681&#xA;&#9;&#9;&#9;&#9;&#9;c0,0.323,0.177,0.603,0.425,0.67l6.668,1.823c0.335,0.091,0.65-0.234,0.65-0.67v-2.504v-5.116v-2.504&#xA;&#9;&#9;&#9;&#9;&#9;c0-0.436-0.315-0.762-0.65-0.67L143.401,169.044z" style="fill:#FFFFFF;"/>
			</g>
		</g>
	</g>
	<g>
		<g>
			<g>
				<path d="M323.134,382.491l-7.336-4.846c6.39-9.672,13.375-19.105,20.762-28.039l6.776,5.603&#xA;&#9;&#9;&#9;&#9;&#9;C336.148,363.901,329.351,373.08,323.134,382.491z" style="fill:#5F5EA5;"/>
			</g>
			<g>
				<g>
					<path d="M334.098,411.697c-1.886,1.128-4.406,2.686-6.77,2.448c-3.492-0.352-3.746-3.706-2.356-6.099&#xA;&#9;&#9;&#9;&#9;&#9;&#9;c1.708-2.94,4.488-4.506,7.808-5.507c1.877-0.566,3.776-1.078,5.693-1.535c0.44-0.105,0.92-0.205,1.341-0.054&#xA;&#9;&#9;&#9;&#9;&#9;&#9;c0.307,0.111,0.533,0.34,0.731,0.571c1.188,1.387,2.718,4.68,1.139,6.231c-0.766,0.753-2.316,1.148-3.306,1.63&#xA;&#9;&#9;&#9;&#9;&#9;&#9;C336.912,410.096,335.483,410.869,334.098,411.697z" style="fill:#E08675;"/>
					<g>
						<path d="M383.165,401.422c-6.88,2.029-13.872,3.822-20.858,5.349c-3.815,0.835-7.657,1.5-11.373,2.141&#xA;&#9;&#9;&#9;&#9;&#9;&#9;&#9;c-4.357,0.754-8.499,1.129-12.57,2.087c-0.457-1.05-0.863-1.712-0.934-1.909c-0.638-1.736-1.108-3.532-1.411-5.356&#xA;&#9;&#9;&#9;&#9;&#9;&#9;&#9;c-0.266-1.612-0.583-2.179-0.348-4.381c4.384-1.023,8.782-2.465,13.054-3.205c3.743-0.648,7.282-1.258,10.818-2.032&#xA;&#9;&#9;&#9;&#9;&#9;&#9;&#9;c6.672-1.459,13.354-3.171,19.927-5.111c0.614-0.181,1.234-0.266,1.845-0.266c2.751,0,5.298,1.752,6.174,4.504&#xA;&#9;&#9;&#9;&#9;&#9;&#9;&#9;C388.593,396.7,386.646,400.395,383.165,401.422z" style="fill:#5F5EA5;"/>
					</g>
				</g>
				<g>
					<path d="M366.634,411.697c1.886,1.128,4.405,2.686,6.769,2.448c3.492-0.352,3.746-3.706,2.356-6.099&#xA;&#9;&#9;&#9;&#9;&#9;&#9;c-1.708-2.94-4.488-4.506-7.808-5.507c-1.877-0.566-3.776-1.078-5.693-1.535c-0.44-0.105-0.92-0.205-1.34-0.054&#xA;&#9;&#9;&#9;&#9;&#9;&#9;c-0.307,0.111-0.533,0.34-0.731,0.571c-1.188,1.387-2.718,4.68-1.139,6.231c0.766,0.753,2.316,1.148,3.306,1.63&#xA;&#9;&#9;&#9;&#9;&#9;&#9;C363.82,410.096,365.249,410.869,366.634,411.697z" style="fill:#E08675;"/>
					<g>
						<path d="M317.567,401.422c6.88,2.029,13.872,3.822,20.858,5.349c3.815,0.835,7.657,1.5,11.373,2.141&#xA;&#9;&#9;&#9;&#9;&#9;&#9;&#9;c4.357,0.754,8.499,1.129,12.57,2.087c0.457-1.05,0.863-1.712,0.934-1.909c0.638-1.736,1.108-3.532,1.411-5.356&#xA;&#9;&#9;&#9;&#9;&#9;&#9;&#9;c0.266-1.612,0.583-2.179,0.348-4.381c-4.384-1.023-8.782-2.465-13.054-3.205c-3.743-0.648-7.282-1.258-10.818-2.032&#xA;&#9;&#9;&#9;&#9;&#9;&#9;&#9;c-6.672-1.459-13.354-3.171-19.927-5.111c-0.614-0.181-1.234-0.266-1.844-0.266c-2.751,0-5.298,1.752-6.174,4.504&#xA;&#9;&#9;&#9;&#9;&#9;&#9;&#9;C312.139,396.7,314.086,400.395,317.567,401.422z" style="fill:#5F5EA5;"/>
					</g>
				</g>
			</g>
			<g>
				<path d="M372.552,395.186c-9.783,3.395-41.045,2.871-41.398-0.736c-0.201-2.075,2.055-30.457,2.63-37.287&#xA;&#9;&#9;&#9;&#9;&#9;c0.191-2.227,0.423-4.564,1.562-6.357c0.997-1.572,2.559-2.529,4.1-3.294c0.141-0.07,0.292-0.141,0.433-0.212&#xA;&#9;&#9;&#9;&#9;&#9;c8.272-3.939,17.883-4.01,26.195-0.181c1.078,0.494,2.156,1.088,2.892,2.116c0.887,1.249,1.108,2.942,1.29,4.544&#xA;&#9;&#9;&#9;&#9;&#9;c1.441,12.886,2.196,25.862,2.277,38.859C372.552,393.483,372.552,394.339,372.552,395.186z" style="fill:#8690F1;"/>
				<path d="M372.552,395.186c-9.783,3.395-41.045,2.871-41.398-0.736&#xA;&#9;&#9;&#9;&#9;&#9;c-0.201-2.075,2.055-30.457,2.63-37.287c0.191-2.227,0.423-4.564,1.562-6.357c0.997-1.572,2.559-2.529,4.1-3.294&#xA;&#9;&#9;&#9;&#9;&#9;c0.141-0.07,0.292-0.141,0.433-0.212c-0.161,7.717,1.048,15.415,3.748,22.659c1.259,3.405,2.861,6.72,5.158,9.531&#xA;&#9;&#9;&#9;&#9;&#9;c4.846,5.924,12.271,9.017,19.445,11.667c1.41,0.524,2.851,1.038,4.302,1.481C372.552,393.483,372.552,394.339,372.552,395.186z" style="opacity:0.22;fill:#5F5EA5;"/>
			</g>
			<g>
				<path d="M335.662,386.749L335.662,386.749c-0.053-2.301,1.68-4.233,3.968-4.474&#xA;&#9;&#9;&#9;&#9;&#9;c5.616-0.592,11.166-2.135,16.255-4.534c0.42-0.198,1.293-0.61,1.586-0.932c0.369-0.406,0.688-1.61,0.879-2.33&#xA;&#9;&#9;&#9;&#9;&#9;c1.962-7.414,3.327-15.02,4.067-22.663c0.229-2.365,2.293-4.12,4.664-3.962l0.001,0c2.474,0.165,4.325,2.342,4.086,4.81&#xA;&#9;&#9;&#9;&#9;&#9;c-0.787,8.117-2.235,16.192-4.319,24.066c-0.537,2.026-1.201,4.157-2.877,5.998c-1.289,1.416-2.847,2.262-4.338,2.965&#xA;&#9;&#9;&#9;&#9;&#9;c-5.988,2.823-12.521,4.636-19.129,5.329C337.954,391.29,335.721,389.313,335.662,386.749z" style="fill:#5F5EA5;"/>
			</g>
			<g>
				<path d="M356.934,333.158v13.66c0,2.688-2.179,4.867-4.867,4.867c-2.688,0-4.867-2.179-4.867-4.867&#xA;&#9;&#9;&#9;&#9;&#9;v-13.66H356.934z" style="fill:#F0C9A1;"/>
				<path d="M356.934,336.43v10.048c-2.085-0.374-4.786-0.864-5.184-0.983&#xA;&#9;&#9;&#9;&#9;&#9;c-1.576-0.474-3.109-1.077-4.55-1.852c-0.901-0.484-1.768-1.033-2.587-1.655c-3.062-2.33,0.082-3.577,2.587-4.585&#xA;&#9;&#9;&#9;&#9;&#9;c0.003-0.003,0.009-0.003,0.013-0.006c2.638-1.061,5.479-1.623,8.321-1.63c0.28,0,0.565,0.003,0.82,0.116&#xA;&#9;&#9;&#9;&#9;&#9;C356.604,335.997,356.789,336.191,356.934,336.43z" style="fill:#E9B588;"/>
				<g>
					<path d="M364.31,313.118c1.21,1.186,1.853,2.827,2.322,4.455c1.204,4.183,1.459,8.699,0.277,12.888&#xA;&#9;&#9;&#9;&#9;&#9;&#9;c-1.182,4.189-3.879,8.017-7.668,10.16c-0.813,0.46-1.878,0.827-2.63,0.273c-0.44-0.324-0.636-0.876-0.803-1.396&#xA;&#9;&#9;&#9;&#9;&#9;&#9;c-2.076-6.483-3.226-13.261-3.405-20.065c-0.049-1.859-0.013-3.783,0.746-5.481C355.118,309.546,361.292,310.16,364.31,313.118&#xA;&#9;&#9;&#9;&#9;&#9;&#9;z" style="fill:#363271;"/>
					<path d="M335.637,331.009c1.555,8.619,7.39,14.78,14.558,13.487c7.168-1.293,11.718-9.328,10.163-17.947&#xA;&#9;&#9;&#9;&#9;&#9;&#9;c-1.555-8.619-8.626-14.557-15.794-13.264C337.396,314.578,334.082,322.39,335.637,331.009z" style="fill:#F0C9A1;"/>
					<path d="M357.323,328.6c-0.145,2.597,1.422,4.797,3.5,4.913c2.078,0.116,3.88-1.896,4.025-4.493&#xA;&#9;&#9;&#9;&#9;&#9;&#9;c0.145-2.597-1.422-4.797-3.5-4.913C359.27,323.992,357.468,326.003,357.323,328.6z" style="fill:#F0C9A1;"/>
					<path d="M356.589,326.937c0.093,0.757,0.138,1.552,0.522,2.211c0.384,0.659,1.25,1.118,1.926,0.764&#xA;&#9;&#9;&#9;&#9;&#9;&#9;c0.421-0.22,0.651-0.679,0.838-1.116c1.542-3.615,1.915-7.718,1.049-11.552c-0.217-0.961-0.574-1.992-1.421-2.495&#xA;&#9;&#9;&#9;&#9;&#9;&#9;c-0.384-0.228-0.831-0.322-1.272-0.396c-0.828-0.139-1.704-0.215-2.483,0.098c-1.26,0.508-1.939,1.926-2.053,3.279&#xA;&#9;&#9;&#9;&#9;&#9;&#9;C353.396,321.251,356.162,323.479,356.589,326.937z" style="fill:#363271;"/>
					<path d="M333.096,314.336c-2.784,2.713-4.712,6.589-4.155,10.436c0.193,1.332,0.758,2.72,1.924,3.392&#xA;&#9;&#9;&#9;&#9;&#9;&#9;c0.648,0.373,1.415,0.486,2.163,0.495c4.165,0.053,7.747-2.764,10.942-5.436c0.16,1.613,2.278,2.102,3.896,2.006&#xA;&#9;&#9;&#9;&#9;&#9;&#9;c4.075-0.24,8.084-1.533,11.532-3.718c1.834-1.162,3.626-2.763,3.984-4.904c0.523-3.126-2.215-5.873-5.057-7.277&#xA;&#9;&#9;&#9;&#9;&#9;&#9;C349.951,305.194,339.582,308.016,333.096,314.336z" style="fill:#363271;"/>
				</g>
			</g>
		</g>
		<g>
			<g>
				<path d="M362.165,393.068h-31.947c-0.724,0-1.413-0.274-1.891-0.75l0,0&#xA;&#9;&#9;&#9;&#9;&#9;c-1.421-1.421-0.268-3.646,1.891-3.646h31.947c0.724,0,1.413,0.274,1.891,0.751l0,0&#xA;&#9;&#9;&#9;&#9;&#9;C365.477,390.844,364.323,393.068,362.165,393.068z" style="fill:#C3B7FC;"/>
				<path d="M343.107,393.068h-35.162c-0.848,0-1.568-0.621-1.693-1.46l-3.886-26.093&#xA;&#9;&#9;&#9;&#9;&#9;c-0.154-1.034,0.647-1.964,1.693-1.964h35.162c0.848,0,1.568,0.621,1.693,1.46l3.886,26.093&#xA;&#9;&#9;&#9;&#9;&#9;C344.954,392.139,344.153,393.068,343.107,393.068z" style="fill:#FFFFFF;"/>
			</g>
			<g>
				<path d="M324.666,378.781c0,2.168-1.757,3.925-3.925,3.925c-2.168,0-3.925-1.757-3.925-3.925&#xA;&#9;&#9;&#9;&#9;&#9;c0-2.168,1.757-3.925,3.925-3.925C322.908,374.856,324.666,376.613,324.666,378.781z" style="fill:#C3B7FC;"/>
				<path d="M329.094,378.781c0,2.168-1.757,3.925-3.925,3.925c-2.168,0-3.925-1.757-3.925-3.925&#xA;&#9;&#9;&#9;&#9;&#9;c0-2.168,1.757-3.925,3.925-3.925C327.337,374.856,329.094,376.613,329.094,378.781z" style="fill:#E08675;"/>
			</g>
		</g>
	</g>
</g>
<g id="DESIGNED_BY_FREEPIK">
	<g>
		<g id="XMLID_319_">
			<g id="XMLID_338_">
				<path d="M260.104,465.465c-0.433,0.443-0.804,0.932-1.108,1.453l-0.465-0.241&#xA;&#9;&#9;&#9;&#9;&#9;c-0.067-0.297-0.35-0.502-0.659-0.466c-0.331,0.039-0.567,0.339-0.529,0.67c0.039,0.331,0.339,0.567,0.67,0.528&#xA;&#9;&#9;&#9;&#9;&#9;c0.065-0.007,0.127-0.025,0.184-0.052l0.451,0.234c-0.251,0.554-0.433,1.139-0.539,1.743l0.747,0.132&#xA;&#9;&#9;&#9;&#9;&#9;c0.23-1.306,0.85-2.507,1.792-3.473L260.104,465.465z" style="fill:#1D262D;" id="XMLID_346_"/>
				<path d="M265.591,463.164c-0.171,0-0.341,0.006-0.509,0.017l-0.074-0.626&#xA;&#9;&#9;&#9;&#9;&#9;c0.188-0.149,0.296-0.389,0.266-0.645c-0.046-0.393-0.402-0.674-0.795-0.628c-0.394,0.046-0.675,0.402-0.628,0.796&#xA;&#9;&#9;&#9;&#9;&#9;c0.03,0.254,0.189,0.461,0.404,0.563l0.073,0.624c-0.714,0.116-1.402,0.332-2.06,0.646l0.327,0.685&#xA;&#9;&#9;&#9;&#9;&#9;c0.935-0.447,1.941-0.674,2.995-0.674c0.497,0,0.993,0.053,1.476,0.158l0.16-0.741&#xA;&#9;&#9;&#9;&#9;&#9;C266.692,463.222,266.142,463.164,265.591,463.164z" style="fill:#1D262D;" id="XMLID_345_"/>
				<path d="M272.194,465.711c0.331-0.04,0.566-0.341,0.525-0.672&#xA;&#9;&#9;&#9;&#9;&#9;c-0.04-0.331-0.341-0.566-0.672-0.525c-0.31,0.038-0.535,0.304-0.53,0.608l-0.416,0.363c-0.418-0.43-0.89-0.813-1.407-1.14&#xA;&#9;&#9;&#9;&#9;&#9;l-0.404,0.642c1.135,0.715,2.021,1.727,2.564,2.925l0.69-0.313c-0.251-0.554-0.567-1.071-0.942-1.545l0.402-0.351&#xA;&#9;&#9;&#9;&#9;&#9;C272.065,465.715,272.128,465.719,272.194,465.711z" style="fill:#1D262D;" id="XMLID_344_"/>
				<path d="M265.044,473.372c-0.386,0.023-0.775,0.035-1.157,0.035&#xA;&#9;&#9;&#9;&#9;&#9;c-0.88,0-1.733-0.061-2.479-0.18c-0.391-0.062-0.846-0.154-1.271-0.292c1.047,1.861,3.069,3.125,5.389,3.125&#xA;&#9;&#9;&#9;&#9;&#9;c2.855,0,5.263-1.916,5.949-4.503c-0.682,0.449-1.505,0.825-2.458,1.122C267.838,473.047,266.463,473.287,265.044,473.372z" style="fill:#1D262D;" id="XMLID_343_"/>
				<path d="M265.591,464.68c-3.351,0-6.079,2.666-6.079,5.943&#xA;&#9;&#9;&#9;&#9;&#9;c0,0.425,0.046,0.849,0.137,1.261c0.674,0.483,2.706,0.891,5.348,0.731c2.88-0.174,5.297-0.958,6.672-2.159&#xA;&#9;&#9;&#9;&#9;&#9;c-0.005-0.194-0.021-0.39-0.045-0.581C271.244,466.914,268.65,464.68,265.591,464.68z M263.432,471.195&#xA;&#9;&#9;&#9;&#9;&#9;c-1.02,0-1.85-0.83-1.85-1.85c0-1.021,0.83-1.851,1.85-1.851c1.02,0,1.85,0.83,1.85,1.851&#xA;&#9;&#9;&#9;&#9;&#9;C265.282,470.365,264.452,471.195,263.432,471.195z M268.169,470.287c-0.75,0-1.36-0.61-1.36-1.36s0.61-1.36,1.36-1.36&#xA;&#9;&#9;&#9;&#9;&#9;s1.36,0.61,1.36,1.36S268.919,470.287,268.169,470.287z" style="fill:#1D262D;" id="XMLID_339_"/>
			</g>
			<path d="M281.595,466.547c-0.295-0.116-0.806-0.31-1.383-0.238&#xA;&#9;&#9;&#9;&#9;c-0.551,0.069-0.844,0.341-0.844,1.007v0.866h2.229v1.717h-2.229v5.455h-1.932v-5.455h-1.339v-1.717h1.339v-0.889&#xA;&#9;&#9;&#9;&#9;c0-1.68,0.896-2.782,2.568-2.782c0.643,0,1.157,0.121,1.59,0.308V466.547z" style="fill:#1D262D;" id="XMLID_336_"/>
			<path d="M286.297,469.878c-0.177-0.029-0.357-0.046-0.525-0.046&#xA;&#9;&#9;&#9;&#9;c-0.896,0-1.51,0.548-1.51,1.613v3.908h-1.933v-7.172h1.873v0.784c0.451-0.673,1.14-0.977,2.021-0.977&#xA;&#9;&#9;&#9;&#9;c0.414,0,0.848,0.128,1.095,0.337L286.297,469.878z" style="fill:#1D262D;" id="XMLID_334_"/>
			<path d="M293.965,471.757c0,0.222-0.016,0.488-0.037,0.651h-5.085&#xA;&#9;&#9;&#9;&#9;c0.207,1.036,0.933,1.487,1.843,1.487c0.622,0,1.295-0.252,1.813-0.689l1.133,1.243c-0.814,0.748-1.851,1.089-3.057,1.089&#xA;&#9;&#9;&#9;&#9;c-2.198,0-3.724-1.496-3.724-3.753c0-2.258,1.48-3.797,3.627-3.797C292.543,467.99,293.958,469.522,293.965,471.757z&#xA;&#9;&#9;&#9;&#9; M288.851,471.091h3.175c-0.178-0.918-0.732-1.437-1.562-1.437C289.554,469.655,289.021,470.203,288.851,471.091z" style="fill:#1D262D;" id="XMLID_331_"/>
			<path d="M301.619,471.757c0,0.222-0.016,0.488-0.037,0.651h-5.085&#xA;&#9;&#9;&#9;&#9;c0.207,1.036,0.933,1.487,1.843,1.487c0.622,0,1.296-0.252,1.814-0.689l1.133,1.243c-0.815,0.748-1.851,1.089-3.058,1.089&#xA;&#9;&#9;&#9;&#9;c-2.198,0-3.723-1.496-3.723-3.753c0-2.258,1.48-3.797,3.627-3.797C300.197,467.99,301.611,469.522,301.619,471.757z&#xA;&#9;&#9;&#9;&#9; M296.504,471.091h3.175c-0.178-0.918-0.733-1.437-1.561-1.437C297.208,469.655,296.674,470.203,296.504,471.091z" style="fill:#1D262D;" id="XMLID_328_"/>
			<path d="M309.964,471.764c0,2.154-1.495,3.775-3.472,3.775&#xA;&#9;&#9;&#9;&#9;c-0.962,0-1.644-0.378-2.109-0.933v3.708h-1.925v-10.133h1.888v0.792c0.467-0.585,1.154-0.984,2.139-0.984&#xA;&#9;&#9;&#9;&#9;C308.469,467.99,309.964,469.611,309.964,471.764z M304.287,471.764c0,1.133,0.748,1.977,1.844,1.977&#xA;&#9;&#9;&#9;&#9;c1.14,0,1.85-0.881,1.85-1.977c0-1.095-0.71-1.976-1.85-1.976C305.035,469.789,304.287,470.632,304.287,471.764z" style="fill:#1D262D;" id="XMLID_325_"/>
			<path d="M313.068,465.836c0,0.696-0.541,1.229-1.236,1.229&#xA;&#9;&#9;&#9;&#9;c-0.696,0-1.229-0.533-1.229-1.229c0-0.695,0.532-1.243,1.229-1.243C312.527,464.592,313.068,465.14,313.068,465.836z&#xA;&#9;&#9;&#9;&#9; M312.808,475.354h-1.932v-7.172h1.932V475.354z" style="fill:#1D262D;" id="XMLID_322_"/>
			<path d="M316.032,470.736l2.702-2.554h2.368l-3.478,3.375l3.501,3.797h-2.376&#xA;&#9;&#9;&#9;&#9;l-2.717-2.901v2.901H314.1v-10.658h1.932V470.736z" style="fill:#1D262D;" id="XMLID_320_"/>
		</g>
		<g>
			<path d="M184.412,475.29v-1.055c-0.527,0.718-1.391,1.23-2.387,1.23c-1.846,0-3.149-1.406-3.149-3.706&#xA;&#9;&#9;&#9;&#9;c0-2.256,1.289-3.721,3.149-3.721c0.952,0,1.816,0.469,2.387,1.245v-3.765h1.099v9.771H184.412z M184.412,473.371v-3.208&#xA;&#9;&#9;&#9;&#9;c-0.395-0.615-1.245-1.143-2.124-1.143c-1.42,0-2.27,1.172-2.27,2.739c0,1.567,0.85,2.725,2.27,2.725&#xA;&#9;&#9;&#9;&#9;C183.167,474.484,184.017,473.986,184.412,473.371z" style="fill:#1D262D;"/>
			<path d="M186.932,471.745c0-2.051,1.465-3.706,3.486-3.706c2.139,0,3.398,1.67,3.398,3.794v0.278h-5.727&#xA;&#9;&#9;&#9;&#9;c0.088,1.333,1.025,2.446,2.549,2.446c0.806,0,1.626-0.322,2.182-0.894l0.527,0.718c-0.703,0.703-1.655,1.084-2.812,1.084&#xA;&#9;&#9;&#9;&#9;C188.44,475.465,186.932,473.957,186.932,471.745z M190.403,468.947c-1.509,0-2.256,1.274-2.314,2.358h4.644&#xA;&#9;&#9;&#9;&#9;C192.718,470.25,192.015,468.947,190.403,468.947z" style="fill:#1D262D;"/>
			<path d="M194.607,474.352l0.571-0.791c0.469,0.542,1.362,1.011,2.329,1.011c1.084,0,1.67-0.513,1.67-1.216&#xA;&#9;&#9;&#9;&#9;c0-1.714-4.38-0.659-4.38-3.281c0-1.099,0.952-2.036,2.636-2.036c1.202,0,2.051,0.454,2.623,1.025l-0.513,0.762&#xA;&#9;&#9;&#9;&#9;c-0.424-0.513-1.201-0.894-2.109-0.894c-0.966,0-1.567,0.483-1.567,1.113c0,1.553,4.379,0.527,4.379,3.281&#xA;&#9;&#9;&#9;&#9;c0,1.187-0.952,2.139-2.783,2.139C196.306,475.465,195.325,475.114,194.607,474.352z" style="fill:#1D262D;"/>
			<path d="M201.477,466.471c0-0.41,0.337-0.747,0.732-0.747c0.41,0,0.747,0.337,0.747,0.747&#xA;&#9;&#9;&#9;&#9;c0,0.41-0.337,0.732-0.747,0.732C201.814,467.204,201.477,466.881,201.477,466.471z M201.667,475.29v-7.075h1.099v7.075H201.667z" style="fill:#1D262D;"/>
			<path d="M204.582,477.106l0.556-0.82c0.586,0.703,1.289,0.967,2.3,0.967c1.172,0,2.271-0.571,2.271-2.124&#xA;&#9;&#9;&#9;&#9;v-1.011c-0.513,0.718-1.377,1.26-2.373,1.26c-1.846,0-3.149-1.377-3.149-3.662c0-2.271,1.289-3.677,3.149-3.677&#xA;&#9;&#9;&#9;&#9;c0.952,0,1.802,0.469,2.373,1.245v-1.069h1.099v6.87c0,2.344-1.641,3.076-3.369,3.076&#xA;&#9;&#9;&#9;&#9;C206.237,478.161,205.416,477.925,204.582,477.106z M209.708,473.253v-3.091c-0.381-0.615-1.23-1.143-2.109-1.143&#xA;&#9;&#9;&#9;&#9;c-1.421,0-2.27,1.128-2.27,2.695c0,1.553,0.849,2.695,2.27,2.695C208.478,474.411,209.328,473.869,209.708,473.253z" style="fill:#1D262D;"/>
			<path d="M217.413,475.29v-4.629c0-1.245-0.63-1.641-1.582-1.641c-0.864,0-1.685,0.527-2.094,1.099v5.171&#xA;&#9;&#9;&#9;&#9;h-1.099v-7.075h1.099v1.025c0.497-0.586,1.464-1.201,2.519-1.201c1.479,0,2.256,0.747,2.256,2.285v4.966H217.413z" style="fill:#1D262D;"/>
			<path d="M219.932,471.745c0-2.051,1.465-3.706,3.486-3.706c2.139,0,3.398,1.67,3.398,3.794v0.278h-5.727&#xA;&#9;&#9;&#9;&#9;c0.088,1.333,1.025,2.446,2.548,2.446c0.806,0,1.626-0.322,2.183-0.894l0.527,0.718c-0.703,0.703-1.655,1.084-2.813,1.084&#xA;&#9;&#9;&#9;&#9;C221.441,475.465,219.932,473.957,219.932,471.745z M223.404,468.947c-1.509,0-2.256,1.274-2.314,2.358h4.643&#xA;&#9;&#9;&#9;&#9;C225.718,470.25,225.015,468.947,223.404,468.947z" style="fill:#1D262D;"/>
			<path d="M233.35,475.29v-1.055c-0.527,0.718-1.392,1.23-2.388,1.23c-1.845,0-3.149-1.406-3.149-3.706&#xA;&#9;&#9;&#9;&#9;c0-2.256,1.289-3.721,3.149-3.721c0.952,0,1.817,0.469,2.388,1.245v-3.765h1.098v9.771H233.35z M233.35,473.371v-3.208&#xA;&#9;&#9;&#9;&#9;c-0.396-0.615-1.245-1.143-2.124-1.143c-1.421,0-2.27,1.172-2.27,2.739c0,1.567,0.85,2.725,2.27,2.725&#xA;&#9;&#9;&#9;&#9;C232.105,474.484,232.954,473.986,233.35,473.371z" style="fill:#1D262D;"/>
			<path d="M239.692,475.29v-9.771h1.099v3.765c0.571-0.776,1.421-1.245,2.388-1.245&#xA;&#9;&#9;&#9;&#9;c1.845,0,3.149,1.465,3.149,3.721c0,2.3-1.304,3.706-3.149,3.706c-0.996,0-1.86-0.513-2.388-1.23v1.055H239.692z M242.9,474.484&#xA;&#9;&#9;&#9;&#9;c1.436,0,2.285-1.157,2.285-2.725c0-1.567-0.85-2.739-2.285-2.739c-0.864,0-1.729,0.527-2.109,1.143v3.208&#xA;&#9;&#9;&#9;&#9;C241.171,473.986,242.036,474.484,242.9,474.484z" style="fill:#1D262D;"/>
			<path d="M247.528,477.062c0.161,0.073,0.425,0.117,0.601,0.117c0.483,0,0.806-0.161,1.055-0.747&#xA;&#9;&#9;&#9;&#9;l0.469-1.069l-2.959-7.148h1.187l2.358,5.801l2.344-5.801h1.2l-3.544,8.511c-0.425,1.024-1.143,1.421-2.08,1.436&#xA;&#9;&#9;&#9;&#9;c-0.234,0-0.6-0.044-0.806-0.104L247.528,477.062z" style="fill:#1D262D;"/>
		</g>
	</g>
</g>
</svg>